HIERARCHY
ROOT Hips
{
    OFFSET   0.000000   0.000000   0.000000
    CHANNELS 6 Xposition Yposition Zposition Zrotation Xrotation Yrotation
    JOINT Chest
    {
        OFFSET   0.000000   8.007230   0.000000
        CHANNELS 3 Zrotation Xrotation Yrotation
        JOINT Chest2
        {
            OFFSET   0.000000  22.077100   0.000000
            CHANNELS 3 Zrotation Xrotation Yrotation
            JOINT Neck
            {
                OFFSET   0.000000  23.255100   0.000000
                CHANNELS 3 Zrotation Xrotation Yrotation
                JOINT Head
                {
                    OFFSET   0.000000  14.370100   1.956600
                    CHANNELS 3 Zrotation Xrotation Yrotation
                    End Site
                    {
                        OFFSET   0.000000  19.566000   0.000000
                    }
                }
            }
            JOINT LeftCollar
            {
                OFFSET   3.911900  19.017000  -0.467063
                CHANNELS 3 Zrotation Xrotation Yrotation
                JOINT LeftShoulder
                {
                    OFFSET  10.383700   0.000000   0.000000
                    CHANNELS 3 Zrotation Xrotation Yrotation
                    JOINT LeftElbow
                    {
                        OFFSET  26.662100   0.001193   0.000980
                        CHANNELS 3 Zrotation Xrotation Yrotation
                        JOINT LeftWrist
                        {
                            OFFSET  28.869000  -0.000059  -0.000082
                            CHANNELS 3 Zrotation Xrotation Yrotation
                            JOINT LeftFinger0
                            {
                                OFFSET   2.044650  -2.323450   3.252850
                                CHANNELS 3 Zrotation Xrotation Yrotation
                                JOINT LeftFinger01
                                {
                                    OFFSET   3.088130   0.000000   0.000000
                                    CHANNELS 3 Zrotation Xrotation Yrotation
                                    JOINT LeftFinger02
                                    {
                                        OFFSET   2.639460   0.000000   0.000000
                                        CHANNELS 3 Zrotation Xrotation Yrotation
                                        End Site
                                        {
                                            OFFSET   2.582190   0.000000   0.000000
                                        }
                                    }
                                }
                            }
                            JOINT LeftFinger1
                            {
                                OFFSET   8.364480   0.000000   3.252850
                                CHANNELS 3 Zrotation Xrotation Yrotation
                                JOINT LeftFinger11
                                {
                                    OFFSET   4.646930   0.000000   0.000000
                                    CHANNELS 3 Zrotation Xrotation Yrotation
                                    JOINT LeftFinger12
                                    {
                                        OFFSET   2.323470   0.000000   0.000000
                                        CHANNELS 3 Zrotation Xrotation Yrotation
                                        End Site
                                        {
                                            OFFSET   2.273050   0.000000   0.000000
                                        }
                                    }
                                }
                            }
                            JOINT LeftFinger2
                            {
                                OFFSET   8.364490   0.000016   1.078090
                                CHANNELS 3 Zrotation Xrotation Yrotation
                                JOINT LeftFinger21
                                {
                                    OFFSET   5.111610   0.000000   0.000000
                                    CHANNELS 3 Zrotation Xrotation Yrotation
                                    JOINT LeftFinger22
                                    {
                                        OFFSET   2.788150   0.000016   0.000000
                                        CHANNELS 3 Zrotation Xrotation Yrotation
                                        End Site
                                        {
                                            OFFSET   2.727660   0.000000   0.000000
                                        }
                                    }
                                }
                            }
                            JOINT LeftFinger3
                            {
                                OFFSET   7.899780   0.000015  -1.078090
                                CHANNELS 3 Zrotation Xrotation Yrotation
                                JOINT LeftFinger31
                                {
                                    OFFSET   4.646930   0.000000   0.000000
                                    CHANNELS 3 Zrotation Xrotation Yrotation
                                    JOINT LeftFinger32
                                    {
                                        OFFSET   2.323470   0.000000   0.000000
                                        CHANNELS 3 Zrotation Xrotation Yrotation
                                        End Site
                                        {
                                            OFFSET   2.273050   0.000000   0.000000
                                        }
                                    }
                                }
                            }
                            JOINT LeftFinger4
                            {
                                OFFSET   7.435090   0.000000  -3.252850
                                CHANNELS 3 Zrotation Xrotation Yrotation
                                JOINT LeftFinger41
                                {
                                    OFFSET   3.717550   0.000000   0.000000
                                    CHANNELS 3 Zrotation Xrotation Yrotation
                                    JOINT LeftFinger42
                                    {
                                        OFFSET   1.858770   0.000000   0.000000
                                        CHANNELS 3 Zrotation Xrotation Yrotation
                                        End Site
                                        {
                                            OFFSET   1.818440   0.000000   0.000000
                                        }
                                    }
                                }
                            }
                        }
                    }
                }
            }
            JOINT RightCollar
            {
                OFFSET  -3.911910  19.017000  -0.467062
                CHANNELS 3 Zrotation Xrotation Yrotation
                JOINT RightShoulder
                {
                    OFFSET -10.383700   0.000014   0.000000
                    CHANNELS 3 Zrotation Xrotation Yrotation
                    JOINT RightElbow
                    {
                        OFFSET -26.662100   0.001225   0.001091
                        CHANNELS 3 Zrotation Xrotation Yrotation
                        JOINT RightWrist
                        {
                            OFFSET -28.869000  -0.000020  -0.000085
                            CHANNELS 3 Zrotation Xrotation Yrotation
                            JOINT RightFinger0
                            {
                                OFFSET  -2.044650  -2.323490   3.252850
                                CHANNELS 3 Zrotation Xrotation Yrotation
                                JOINT RightFinger01
                                {
                                    OFFSET  -3.088130   0.000000   0.000000
                                    CHANNELS 3 Zrotation Xrotation Yrotation
                                    JOINT RightFinger02
                                    {
                                        OFFSET  -2.639460   0.000000   0.000000
                                        CHANNELS 3 Zrotation Xrotation Yrotation
                                        End Site
                                        {
                                            OFFSET  -2.582190   0.000000   0.000000
                                        }
                                    }
                                }
                            }
                            JOINT RightFinger1
                            {
                                OFFSET  -8.364480   0.000000   3.252850
                                CHANNELS 3 Zrotation Xrotation Yrotation
                                JOINT RightFinger11
                                {
                                    OFFSET  -4.646930   0.000000   0.000000
                                    CHANNELS 3 Zrotation Xrotation Yrotation
                                    JOINT RightFinger12
                                    {
                                        OFFSET  -2.323470   0.000000   0.000000
                                        CHANNELS 3 Zrotation Xrotation Yrotation
                                        End Site
                                        {
                                            OFFSET  -2.273050   0.000000   0.000000
                                        }
                                    }
                                }
                            }
                            JOINT RightFinger2
                            {
                                OFFSET  -8.364480   0.000000   1.078090
                                CHANNELS 3 Zrotation Xrotation Yrotation
                                JOINT RightFinger21
                                {
                                    OFFSET  -5.111620   0.000000   0.000000
                                    CHANNELS 3 Zrotation Xrotation Yrotation
                                    JOINT RightFinger22
                                    {
                                        OFFSET  -2.788160   0.000000   0.000000
                                        CHANNELS 3 Zrotation Xrotation Yrotation
                                        End Site
                                        {
                                            OFFSET  -2.727660   0.000000   0.000000
                                        }
                                    }
                                }
                            }
                            JOINT RightFinger3
                            {
                                OFFSET  -7.899780   0.000000  -1.078090
                                CHANNELS 3 Zrotation Xrotation Yrotation
                                JOINT RightFinger31
                                {
                                    OFFSET  -4.646930   0.000000   0.000000
                                    CHANNELS 3 Zrotation Xrotation Yrotation
                                    JOINT RightFinger32
                                    {
                                        OFFSET  -2.323470   0.000000   0.000000
                                        CHANNELS 3 Zrotation Xrotation Yrotation
                                        End Site
                                        {
                                            OFFSET  -2.273050   0.000000   0.000000
                                        }
                                    }
                                }
                            }
                            JOINT RightFinger4
                            {
                                OFFSET  -7.435090   0.000000  -3.252850
                                CHANNELS 3 Zrotation Xrotation Yrotation
                                JOINT RightFinger41
                                {
                                    OFFSET  -3.717550   0.000000   0.000000
                                    CHANNELS 3 Zrotation Xrotation Yrotation
                                    JOINT RightFinger42
                                    {
                                        OFFSET  -1.858760   0.000000   0.000000
                                        CHANNELS 3 Zrotation Xrotation Yrotation
                                        End Site
                                        {
                                            OFFSET  -1.818440   0.000000   0.000000
                                        }
                                    }
                                }
                            }
                        }
                    }
                }
            }
        }
    }
    JOINT LeftHip
    {
        OFFSET   9.783030   0.000000   0.000000
        CHANNELS 3 Zrotation Xrotation Yrotation
        JOINT LeftKnee
        {
            OFFSET   0.000063 -41.789100   0.000608
            CHANNELS 3 Zrotation Xrotation Yrotation
            JOINT LeftAnkle
            {
                OFFSET   0.000048 -41.133200  -0.000184
                CHANNELS 3 Zrotation Xrotation Yrotation
                JOINT LeftToe
                {
                    OFFSET   0.000000  -6.358960  14.674500
                    CHANNELS 3 Zrotation Xrotation Yrotation
                    End Site
                    {
                        OFFSET   0.000000   0.000000   3.913200
                    }
                }
            }
        }
    }
    JOINT RightHip
    {
        OFFSET  -9.783030   0.000000   0.000000
        CHANNELS 3 Zrotation Xrotation Yrotation
        JOINT RightKnee
        {
            OFFSET   0.000071 -41.789100   0.001239
            CHANNELS 3 Zrotation Xrotation Yrotation
            JOINT RightAnkle
            {
                OFFSET   0.000037 -41.133200  -0.000166
                CHANNELS 3 Zrotation Xrotation Yrotation
                JOINT RightToe
                {
                    OFFSET   0.000000  -6.358960  14.674500
                    CHANNELS 3 Zrotation Xrotation Yrotation
                    End Site
                    {
                        OFFSET   0.000000   0.000000   3.913200
                    }
                }
            }
        }
    }
}
MOTION
Frames: 6
Frame Time:   0.016667
  1.598640  89.540000   2.081370  -4.909000 -14.227400  -6.001550   0.271070   8.911990   1.652760   0.283349  17.828200   3.323820   1.294010  -1.944640   0.044143   2.132770  -3.937500   7.494850  -4.066340  -1.183100  -0.532851 -69.432200  25.706000  -6.368920  -2.806170  -7.162930 -18.711800  17.273700 -13.660000   6.909930  39.008900  35.787000 -69.089700 -33.036600  -0.001481   0.000061 -11.518300   0.001563   0.003240 -31.534100   5.954480  -9.595670 -26.209800  -0.003642   0.001391 -18.346900  -0.002318   0.002325 -28.511000  -1.017460   1.872310 -36.468800  -0.000842  -0.000635 -24.288300   0.000000  -0.000373 -28.210100  -1.007610   1.877630 -33.612900   0.000958   0.000000 -22.386200   0.000508  -0.001961 -30.540400  -1.083130   1.835160 -45.836500   0.002153  -0.000534 -30.527100   0.000073  -0.001776   8.902140  -0.287563   7.284570  43.910000   0.545274  33.234500 -44.161200 -36.884600  90.359500 -59.575900  16.049000  39.409600 -18.911800  45.837200  58.849900  79.883700   0.001296  -0.006898  46.542600   0.003558  -0.000703  67.874400   6.575120   2.666110  55.658600  -0.001114  -0.003775  41.744000  -0.004239   0.001459  15.654500   1.656660   5.892570  15.739600   0.009637  -0.000162  10.482600   0.005966  -0.000511   1.366150  -0.320184 -13.160400   1.402620   0.008985  -0.001207   0.934143   0.002363  -0.002169  10.682500  -7.023260 -32.959600  19.144400   0.001300   0.000859  12.750200   0.000499  -0.000325   2.475280  18.205400   3.736760   0.648695   0.068712   4.712560  -0.919218  -5.294560   1.237030  -0.000000   0.000000   0.000000   4.452470  15.462200  -5.129650  -2.122640   4.091230  -0.968018   0.195846  -6.188800   1.270970   0.000000   0.000000  -0.000000
  1.581500  89.528900   2.129120  -4.914810 -14.180900  -6.074120   0.255116   8.876480   1.672280   0.249206  17.756700   3.366070   1.416680  -2.080240   0.051909   2.336500  -4.210330   7.576130  -4.091300  -1.175120  -0.520662 -69.511400  25.644300  -6.319630  -2.775310  -7.073890 -18.585800  17.316000 -13.695500   6.911920  38.890000  35.546100 -68.832500 -33.023200  -0.001763  -0.000010 -11.511600   0.001563   0.003135 -31.535300   5.953720  -9.593200 -26.210500  -0.003634   0.001257 -18.347400  -0.002317   0.002221 -28.512700  -1.019500   1.875880 -36.488700  -0.000896  -0.000475 -24.301500  -0.000058  -0.000203 -28.212500  -1.009670   1.881190 -33.631900   0.001001  -0.000000 -22.398900   0.000506  -0.001961 -30.556100  -1.086020   1.838270 -45.860000   0.002125  -0.000496 -30.542800   0.000073  -0.001779   8.925640  -0.262114   7.309540  43.832900   1.048450  33.335100 -45.025900 -37.209700  89.705600 -59.283100  16.149400  38.903400 -18.304200  45.568500  58.534800  80.873300   0.000620  -0.003598  47.201600   0.003612  -0.001014  68.073200   6.064100   2.436480  55.801800  -0.001083  -0.003715  41.851400  -0.004198   0.001444  15.987900   1.573070   5.458690  16.062100   0.009683  -0.000178  10.697300   0.005957  -0.000534   1.738160  -0.417935 -13.531400   1.787240   0.009084  -0.001204   1.190310   0.002479  -0.002151  11.156400  -7.252940 -32.646000  19.925500   0.001406   0.000824  13.270400   0.000438  -0.000355   2.447800  18.220800   3.706330   0.663545   0.035498   4.764910  -0.906095  -5.302130   1.306140  -0.000000   0.000000   0.000000   4.417840  15.444700  -5.125370  -2.071130   4.092410  -0.904372   0.167630  -6.203200   1.287840   0.000000   0.000000   0.000000
  1.563710  89.515600   2.174480  -4.936670 -14.146000  -6.185170   0.238760   8.835190   1.708120   0.210944  17.673500   3.441080   1.543860  -2.132130   0.057525   2.546190  -4.314250   7.605050  -4.115460  -1.153800  -0.501672 -69.630700  25.515600  -6.225830  -2.740820  -6.987490 -18.526300  17.363800 -13.795800   6.921470  38.827000  35.417800 -68.700000 -33.005800  -0.002045  -0.000073 -11.502900   0.001563   0.003028 -31.541100   5.952960  -9.590740 -26.215200  -0.003625   0.001127 -18.350600  -0.002316   0.002113 -28.516200  -1.021540   1.879440 -36.532400  -0.000950  -0.000290 -24.330600  -0.000110   0.000000 -28.217700  -1.011730   1.884750 -33.673900   0.001044   0.000000 -22.426800   0.000504  -0.001961 -30.588700  -1.088910   1.841380 -45.909100   0.002097  -0.000448 -30.575400   0.000074  -0.001783   8.942320  -0.230492   7.329730  43.777000   1.488800  33.532000 -45.894800 -37.288100  89.044500 -58.866800  16.200500  38.355900 -17.781700  45.317200  58.272100  81.725400   0.000000  -0.001517  47.769100   0.003662  -0.001317  68.288300   5.641320   2.242310  55.963200  -0.001057  -0.003656  41.972400  -0.004154   0.001433  16.319700   1.518500   5.164240  16.388500   0.009730  -0.000193  10.914700   0.005948  -0.000560   2.106870  -0.515187 -13.794600   2.168870   0.009181  -0.001199   1.444490   0.002597  -0.002136  11.641300  -7.484860 -32.326000  20.720700   0.001439   0.000794  13.800000   0.000382  -0.000385   2.435650  18.248100   3.679450   0.674527   0.002288   4.824670  -0.891212  -5.316390   1.392310  -0.000000   0.000000  -0.000000   4.401010  15.432200  -5.111670  -2.041260   4.100160  -0.845001   0.141678  -6.221390   1.324920   0.000000   0.000000  -0.000000
  1.543990  89.499400   2.219960  -4.976950 -14.129200  -6.324240   0.225030   8.789990   1.746230   0.178317  17.582700   3.520450   1.658280  -2.081970   0.059254   2.734050  -4.211720   7.603180  -4.131250  -1.117220  -0.469786 -69.764900  25.347100  -6.126350  -2.705800  -6.936030 -18.521400  17.406100 -13.985300   6.953270  38.857500  35.455800 -68.764800 -32.971600  -0.002335  -0.000130 -11.485800   0.001568   0.002930 -31.557100   5.974020  -9.618800 -26.231100  -0.003619   0.001004 -18.361700  -0.002311   0.002001 -28.522000  -1.006400   1.851270 -36.595100  -0.001002  -0.000084 -24.372300  -0.000179   0.000201 -28.227000  -0.996806   1.856460 -33.735300   0.001086   0.000000 -22.467700   0.000505  -0.001962 -30.633500  -1.073730   1.813160 -45.975600   0.002069  -0.000391 -30.619700   0.000074  -0.001785   8.949590  -0.193580   7.347150  43.739200   1.826990  33.762800 -45.607000  -0.014729  90.262400 -58.233100  16.152100  37.758700 -17.510100  45.181500  58.257700  82.177000  -0.000423  -0.001694  48.069900   0.003691  -0.001584  68.524600   5.442700   2.137330  56.149200  -0.001039  -0.003595  42.111900  -0.004094   0.001436  16.629700   1.536100   5.136710  16.699600   0.009777  -0.000203  11.121900   0.005947  -0.000589   2.448400  -0.600178 -13.805700   2.520830   0.009275  -0.001186   1.678900   0.002721  -0.002124  12.060700  -7.682560 -32.049400  21.405800   0.001350   0.000763  14.256300   0.000327  -0.000400   2.445550  18.264100   3.663550   0.672936   0.060866   4.883030  -0.880530  -5.389720   1.488900   0.000000   0.000000   0.000000   4.411910  15.433100  -5.082440  -2.036380   4.124840  -0.795515   0.121283  -6.244270   1.377970   0.000000   0.000000   0.000000
  1.525660  89.481800   2.263780  -5.029310 -14.123300  -6.474110   0.213875   8.742330   1.782700   0.151371  17.487100   3.595980   1.763800  -1.930380   0.059496   2.906720  -3.903500   7.594320  -4.148850  -1.076450  -0.432366 -69.906000  25.168900  -6.013120  -2.662510  -6.890310 -18.519200  17.437300 -14.178500   6.979680  38.924900  35.550400 -68.906000 -32.936400  -0.002628  -0.000177 -11.468200   0.001576   0.002836 -31.576000   6.007680  -9.663890 -26.250800  -0.003613   0.000884 -18.375500  -0.002305   0.001886 -28.527800  -0.982208   1.806270 -36.658900  -0.001054   0.000140 -24.414800  -0.000252   0.000424 -28.234200  -0.972936   1.811280 -33.796500   0.001129  -0.000000 -22.508500   0.000505  -0.001963 -30.677600  -1.049300   1.768200 -46.040600   0.002042  -0.000329 -30.663000   0.000075  -0.001787   8.948530  -0.153475   7.367810  43.660400   2.071890  34.013200 -46.916600 -36.598800  86.146200 -57.554400  16.037100  37.183000 -17.402000  45.084500  58.312300  82.323600  -0.000765  -0.001987  48.167500   0.003717  -0.001843  68.755400   5.341520   2.072380  56.333600  -0.001019  -0.003532  42.250200  -0.004033   0.001439  16.917000   1.568530   5.132850  16.987300   0.009825  -0.000210  11.313500   0.005946  -0.000620   2.762530  -0.675619 -13.807400   2.844490   0.009371  -0.001171   1.894440   0.002849  -0.002109  12.439600  -7.857250 -31.799700  22.021800   0.001177   0.000731  14.666500   0.000281  -0.000414   2.459560  18.301700   3.658190   0.668303   0.119434   4.938850  -0.869396  -5.472220   1.584980   0.000000   0.000000  -0.000000   4.438120  15.435400  -5.052560  -2.038570   4.159460  -0.742861   0.105363  -6.270770   1.432770   0.000000   0.000000  -0.000000
  1.512260  89.463900   2.304910  -5.084180 -14.129400  -6.616100   0.205183   8.696590   1.811190   0.130213  17.395300   3.655030   1.859650  -1.681960   0.055279   3.062500  -3.399910   7.568100  -4.176050  -1.042560  -0.393193 -70.034100  25.021800  -5.889450  -2.623000  -6.831240 -18.542100  17.451500 -14.295200   6.981330  39.024100  35.713500 -69.108000 -32.910400  -0.002921  -0.000208 -11.455200   0.001580   0.002746 -31.591600   6.036710  -9.703440 -26.267400  -0.003608   0.000767 -18.387200  -0.002297   0.001769 -28.530500  -0.961645   1.768070 -36.707600  -0.001106   0.000380 -24.447200  -0.000322   0.000684 -28.235300  -0.952608   1.772960 -33.837700   0.001172   0.000000 -22.535900   0.000504  -0.001963 -30.706200  -1.028130   1.730270 -46.082600   0.002016  -0.000264 -30.691000   0.000075  -0.001790   8.943130  -0.112339   7.399210  43.545200   2.222810  34.230700 -47.163800 -36.080400  84.686900 -56.900500  15.817800  36.689600 -17.383500  44.988200  58.328200  82.292600  -0.001104  -0.002215  48.146800   0.003759  -0.002118  68.936400   5.242460   2.014620  56.478000  -0.000984  -0.003466  42.358500  -0.003985   0.001432  17.157000   1.604190   5.171300  17.229500   0.009872  -0.000218  11.474900   0.005941  -0.000648   3.037820  -0.738966 -13.740300   3.127030   0.009474  -0.001156   2.082610   0.002981  -0.002082  12.762200  -7.999610 -31.585500  22.542300   0.000975   0.000700  15.013200   0.000249  -0.000443   2.472290  18.406300   3.667560   0.669869   0.059994   4.985910  -0.857441  -5.498000   1.669190   0.000000   0.000000   0.000000   4.469900  15.451200  -5.038310  -2.050440   4.195530  -0.670094   0.094853  -6.301110   1.472010   0.000000   0.000000   0.000000
